<?xml version="1.0" encoding="utf-8"?>
<!-- Generator: Adobe Illustrator 25.4.1, SVG Export Plug-In . SVG Version: 6.00 Build 0)  -->
<svg version="1.1" id="Layer_1" xmlns="http://www.w3.org/2000/svg" xmlns:xlink="http://www.w3.org/1999/xlink" x="0px" y="0px"
	 viewBox="0 0 256 256" style="enable-background:new 0 0 256 256;" xml:space="preserve">
<style type="text/css">
	.st0{display:none;}
	.st1{display:inline;fill:#0066CC;}
	.st2{fill:#0073AA;}
</style>
<g id="Layer_3" class="st0">
	<path class="st1" d="M130.8,139.3l-20.1,5.4l5.4-20.1l15.2-56.5c-1.1-0.1-2.1-0.1-3.2-0.1c-33.1,0-60,26.9-60,60s26.9,60,60,60
		s60-26.9,60-60c0-1.3-0.1-2.7-0.1-4L130.8,139.3z"/>
</g>
<g>
	<path class="st2" d="M143.7,68l-13.2,49.3c-1.2,4.6,3,8.8,7.6,7.6l49.7-13.3c0,0,0,0,0,0l59.9-16c-11.5-42.6-45.2-76.1-88-87.4
		L143.7,68C143.7,68,143.7,68,143.7,68z"/>
	<path class="st2" d="M250.3,107.7l-55.7,14.9c-2.6,0.7-4.5,3.1-4.6,5.8c-0.8,34.4-28.8,63-64.6,61.6c-31.8-1.3-57.2-26-59.3-57.8
		C63.8,96.1,92,66.8,126.8,66c2.7-0.1,5.1-2,5.8-4.6l15-55.8C141.2,4.5,134.7,4,128,4C58.9,4,3,60.5,4,129.8
		C4.9,196.6,59.5,251.1,126.2,252c69.3,1,125.8-54.9,125.8-124C252,121.1,251.4,114.3,250.3,107.7z"/>
</g>
<g id="Layer_1_00000042015018393715108780000017270062000479790212_">
</g>
</svg>
